<svg xmlns="http://www.w3.org/2000/svg" xmlns:xlink="http://www.w3.org/1999/xlink" width="70" zoomAndPan="magnify" viewBox="0 0 52.5 44.999999" height="60" preserveAspectRatio="xMidYMid meet" version="1.0"><defs><clipPath id="id1"><path d="M 2.027344 7 L 15 7 L 15 26 L 2.027344 26 Z M 2.027344 7 " clip-rule="nonzero"/></clipPath><clipPath id="id2"><path d="M 36 1.304688 L 50.777344 1.304688 L 50.777344 20 L 36 20 Z M 36 1.304688 " clip-rule="nonzero"/></clipPath><clipPath id="id3"><path d="M 2.027344 8 L 11 8 L 11 23 L 2.027344 23 Z M 2.027344 8 " clip-rule="nonzero"/></clipPath><clipPath id="id4"><path d="M 37 1.304688 L 47 1.304688 L 47 16 L 37 16 Z M 37 1.304688 " clip-rule="nonzero"/></clipPath><clipPath id="id5"><path d="M 2.027344 23 L 18 23 L 18 44.054688 L 2.027344 44.054688 Z M 2.027344 23 " clip-rule="nonzero"/></clipPath><clipPath id="id6"><path d="M 36 16 L 50.777344 16 L 50.777344 39 L 36 39 Z M 36 16 " clip-rule="nonzero"/></clipPath><clipPath id="id7"><path d="M 2.027344 23 L 14 23 L 14 41 L 2.027344 41 Z M 2.027344 23 " clip-rule="nonzero"/></clipPath></defs><g clip-path="url(#id1)"><path fill="rgb(0%, 0%, 0%)" d="M 2.214844 22.21875 L 2.359375 9.074219 L 10.425781 7.667969 L 14.199219 11.429688 L 14.160156 14.886719 L 12.4375 15.1875 L 13.699219 16.449219 L 13.664062 19.898438 L 9.972656 20.546875 L 9.921875 25.292969 L 5.988281 25.980469 Z M 2.214844 22.21875 " fill-opacity="1" fill-rule="nonzero"/></g><path fill="rgb(0%, 0%, 0%)" d="M 10.078125 20.84375 L 10.226562 7.699219 L 14.15625 7.011719 L 17.929688 10.777344 L 17.871094 16.039062 L 18.214844 15.976562 L 18.246094 16.011719 L 21.425781 5.742188 L 24.8125 5.152344 L 28.070312 8.402344 C 28.113281 7.210938 28.578125 6.15625 29.453125 5.273438 C 30.316406 4.398438 31.40625 3.84375 32.699219 3.617188 C 33.027344 3.558594 33.351562 3.53125 33.65625 3.53125 C 34.167969 3.53125 34.65625 3.609375 35.097656 3.769531 C 35.570312 3.941406 35.980469 4.199219 36.324219 4.535156 C 36.324219 4.535156 36.328125 4.542969 36.332031 4.542969 L 39.761719 7.964844 C 39.847656 8.046875 39.929688 8.140625 40.011719 8.238281 L 40.03125 8.265625 C 40.117188 8.378906 40.191406 8.488281 40.257812 8.601562 C 40.304688 8.675781 40.347656 8.757812 40.390625 8.835938 C 40.402344 8.859375 40.410156 8.882812 40.421875 8.90625 L 39.964844 9.144531 L 40.4375 8.9375 C 40.460938 8.988281 40.484375 9.035156 40.503906 9.085938 C 40.511719 9.109375 40.554688 9.214844 40.554688 9.214844 C 40.570312 9.257812 40.585938 9.300781 40.597656 9.34375 C 40.609375 9.378906 40.621094 9.417969 40.632812 9.457031 L 40.667969 9.570312 C 40.667969 9.570312 40.695312 9.691406 40.707031 9.730469 C 40.71875 9.78125 40.730469 9.835938 40.738281 9.886719 C 40.746094 9.929688 40.753906 9.96875 40.761719 10.011719 C 40.769531 10.0625 40.777344 10.117188 40.78125 10.171875 C 40.789062 10.210938 40.792969 10.253906 40.796875 10.296875 C 40.800781 10.351562 40.804688 10.40625 40.808594 10.464844 L 40.820312 10.640625 C 40.820312 10.714844 40.820312 10.785156 40.820312 10.859375 L 40.8125 11.710938 L 38.617188 12.09375 L 39.75 13.21875 C 39.828125 13.296875 39.90625 13.382812 39.980469 13.476562 L 39.988281 13.484375 L 40.011719 13.515625 C 40.070312 13.589844 40.136719 13.683594 40.199219 13.78125 L 40.210938 13.796875 L 40.226562 13.832031 C 40.273438 13.90625 40.324219 13.996094 40.371094 14.089844 C 40.386719 14.121094 40.398438 14.148438 40.410156 14.179688 L 40.421875 14.207031 C 40.457031 14.285156 40.484375 14.351562 40.511719 14.421875 C 40.523438 14.453125 40.53125 14.484375 40.542969 14.519531 L 40.566406 14.597656 C 40.582031 14.640625 40.59375 14.679688 40.605469 14.722656 L 40.632812 14.832031 C 40.660156 14.945312 40.679688 15.039062 40.695312 15.136719 C 40.699219 15.171875 40.703125 15.191406 40.707031 15.210938 C 40.722656 15.316406 40.734375 15.433594 40.742188 15.550781 L 40.75 15.664062 C 40.75 15.699219 40.753906 15.738281 40.753906 15.773438 C 40.757812 15.847656 40.757812 15.917969 40.753906 15.992188 C 40.753906 16.128906 40.746094 16.265625 40.734375 16.402344 C 40.734375 16.402344 40.714844 16.609375 40.710938 16.636719 C 40.703125 16.6875 40.695312 16.730469 40.6875 16.769531 L 40.679688 16.820312 C 40.671875 16.875 40.664062 16.90625 40.660156 16.9375 C 40.636719 17.058594 40.605469 17.183594 40.574219 17.304688 L 40.550781 17.371094 C 40.515625 17.488281 40.480469 17.597656 40.4375 17.703125 C 40.4375 17.703125 40.371094 17.871094 40.363281 17.894531 C 40.332031 17.960938 40.300781 18.027344 40.265625 18.09375 C 40.246094 18.132812 40.238281 18.152344 40.230469 18.167969 C 40.175781 18.265625 40.121094 18.367188 40.0625 18.460938 L 40.027344 18.507812 C 40.015625 18.535156 39.988281 18.566406 39.964844 18.601562 L 39.941406 18.636719 C 39.894531 18.707031 39.84375 18.777344 39.792969 18.84375 C 39.757812 18.890625 39.71875 18.933594 39.683594 18.980469 L 39.652344 19.015625 C 39.632812 19.042969 39.609375 19.070312 39.585938 19.097656 C 39.542969 19.144531 39.5 19.1875 39.460938 19.230469 C 38.644531 20.082031 37.554688 20.628906 36.21875 20.859375 C 35.863281 20.921875 35.515625 20.953125 35.179688 20.953125 C 34.660156 20.953125 34.164062 20.878906 33.707031 20.730469 C 33.136719 20.546875 32.644531 20.25 32.246094 19.855469 L 32.023438 19.632812 L 32.578125 21.335938 L 28.265625 22.089844 L 26.234375 20.066406 L 25.683594 20.164062 L 25.027344 22.65625 L 13.855469 24.605469 Z M 29.632812 12.269531 L 30.128906 12.183594 L 29.351562 11.40625 Z M 29.632812 12.269531 " fill-opacity="1" fill-rule="nonzero"/><g clip-path="url(#id2)"><path fill="rgb(0%, 0%, 0%)" d="M 36.953125 16.152344 L 37.097656 3.007812 L 41.03125 2.320312 L 42.953125 4.238281 L 42.976562 1.980469 L 46.902344 1.296875 L 50.675781 5.058594 L 50.53125 18.203125 L 46.609375 18.886719 L 44.6875 16.972656 L 44.660156 19.226562 L 40.730469 19.914062 Z M 36.953125 16.152344 " fill-opacity="1" fill-rule="nonzero"/></g><g clip-path="url(#id3)"><path fill="rgb(100%, 100%, 100%)" d="M 10.21875 11.035156 L 10.25 8.214844 L 2.867188 9.503906 L 2.730469 22.007812 L 5.976562 21.441406 L 6.027344 16.691406 L 9.71875 16.046875 L 9.75 13.234375 L 6.058594 13.878906 L 6.082031 11.757812 Z M 10.21875 11.035156 " fill-opacity="1" fill-rule="nonzero"/></g><path fill="rgb(100%, 100%, 100%)" d="M 33.65625 4.039062 C 34.109375 4.039062 34.535156 4.109375 34.921875 4.25 C 35.554688 4.480469 36.046875 4.878906 36.382812 5.4375 C 36.714844 5.992188 36.878906 6.660156 36.871094 7.425781 L 36.867188 7.859375 L 33.628906 8.425781 L 33.636719 7.996094 C 33.640625 7.554688 33.558594 7.242188 33.390625 7.066406 C 33.316406 6.988281 33.195312 6.894531 32.941406 6.894531 C 32.878906 6.894531 32.804688 6.902344 32.71875 6.914062 C 32.425781 6.964844 32.214844 7.078125 32.0625 7.257812 C 31.910156 7.449219 31.832031 7.683594 31.828125 7.984375 C 31.828125 8.1875 31.910156 8.351562 32.082031 8.5 C 32.230469 8.625 32.5625 8.808594 33.300781 8.992188 C 34.5 9.214844 35.390625 9.605469 35.949219 10.15625 C 36.53125 10.730469 36.820312 11.539062 36.808594 12.5625 C 36.796875 13.699219 36.40625 14.675781 35.652344 15.457031 C 34.914062 16.226562 33.921875 16.722656 32.699219 16.933594 C 32.371094 16.992188 32.050781 17.019531 31.746094 17.019531 C 31.28125 17.019531 30.839844 16.957031 30.433594 16.824219 C 29.742188 16.597656 29.195312 16.195312 28.804688 15.621094 C 28.421875 15.046875 28.230469 14.320312 28.238281 13.460938 L 28.242188 13.03125 L 31.496094 12.460938 L 31.492188 12.894531 C 31.484375 13.445312 31.582031 13.839844 31.769531 14.023438 C 31.886719 14.140625 32.074219 14.199219 32.328125 14.199219 C 32.449219 14.199219 32.582031 14.1875 32.730469 14.164062 C 33.226562 14.078125 33.539062 13.875 33.546875 13.148438 C 33.550781 12.796875 33.472656 12.550781 33.316406 12.421875 C 33.175781 12.308594 32.859375 12.136719 32.128906 11.96875 C 30.882812 11.71875 30 11.324219 29.4375 10.769531 C 28.859375 10.195312 28.574219 9.445312 28.582031 8.53125 C 28.597656 7.425781 29.011719 6.449219 29.820312 5.632812 C 30.609375 4.835938 31.605469 4.328125 32.789062 4.121094 C 33.089844 4.066406 33.378906 4.039062 33.65625 4.039062 Z M 33.65625 4.039062 " fill-opacity="1" fill-rule="nonzero"/><path fill="rgb(100%, 100%, 100%)" d="M 24.636719 5.703125 L 28.472656 17.515625 L 25.007812 18.121094 L 24.402344 15.847656 L 21.835938 16.292969 L 21.179688 18.789062 L 18.007812 19.339844 L 17.738281 19.386719 L 10.597656 20.636719 L 10.734375 8.128906 L 13.980469 7.5625 L 13.871094 17.253906 L 18.039062 16.527344 L 18.015625 18.488281 L 21.824219 6.191406 Z M 22.613281 13.34375 L 23.679688 13.15625 L 23.167969 11.230469 L 22.613281 13.34375 " fill-opacity="1" fill-rule="nonzero"/><g clip-path="url(#id4)"><path fill="rgb(100%, 100%, 100%)" d="M 46.726562 1.847656 L 46.585938 14.351562 L 43.351562 14.917969 L 43.40625 9.933594 L 40.773438 10.394531 L 40.71875 15.375 L 37.472656 15.941406 L 37.609375 3.4375 L 40.855469 2.871094 L 40.804688 7.582031 L 43.4375 7.121094 L 43.488281 2.410156 Z M 46.726562 1.847656 " fill-opacity="1" fill-rule="nonzero"/></g><g clip-path="url(#id5)"><path fill="rgb(0%, 0%, 0%)" d="M 10.511719 44.042969 C 9.871094 44.042969 9.257812 43.949219 8.691406 43.769531 C 7.992188 43.542969 7.390625 43.179688 6.898438 42.695312 L 3.46875 39.273438 L 3.46875 39.269531 C 3.265625 39.066406 3.085938 38.851562 2.933594 38.625 C 2.386719 37.8125 2.117188 36.796875 2.128906 35.605469 L 2.140625 34.636719 L 5.316406 34.082031 L 3.792969 32.566406 C 2.964844 31.742188 2.550781 30.667969 2.566406 29.375 C 2.582031 27.835938 3.15625 26.484375 4.277344 25.351562 C 5.347656 24.269531 6.703125 23.578125 8.308594 23.296875 C 8.71875 23.226562 9.117188 23.1875 9.496094 23.1875 C 10.128906 23.1875 10.726562 23.289062 11.269531 23.484375 C 11.847656 23.691406 12.355469 24.011719 12.773438 24.429688 L 12.777344 24.425781 L 16.210938 27.847656 C 16.316406 27.953125 16.417969 28.066406 16.511719 28.1875 L 16.535156 28.21875 C 16.640625 28.351562 16.734375 28.492188 16.816406 28.628906 C 16.875 28.722656 16.929688 28.820312 16.976562 28.921875 C 16.992188 28.945312 17.023438 29.019531 17.023438 29.019531 C 17.054688 29.085938 17.089844 29.15625 17.117188 29.226562 C 17.128906 29.253906 17.140625 29.285156 17.152344 29.320312 L 17.164062 29.347656 C 17.1875 29.410156 17.210938 29.476562 17.234375 29.542969 C 17.25 29.585938 17.261719 29.628906 17.273438 29.671875 C 17.273438 29.671875 17.304688 29.773438 17.316406 29.808594 L 17.328125 29.859375 C 17.34375 29.917969 17.355469 29.96875 17.363281 30.015625 C 17.378906 30.078125 17.394531 30.144531 17.40625 30.214844 C 17.414062 30.261719 17.421875 30.308594 17.429688 30.355469 C 17.441406 30.429688 17.453125 30.496094 17.460938 30.566406 C 17.464844 30.613281 17.472656 30.664062 17.476562 30.714844 C 17.484375 30.785156 17.488281 30.855469 17.492188 30.925781 C 17.496094 30.992188 17.503906 31.125 17.503906 31.144531 C 17.507812 31.230469 17.507812 31.320312 17.507812 31.410156 L 17.496094 32.378906 L 14.582031 32.890625 L 16.191406 34.496094 C 16.289062 34.589844 16.386719 34.699219 16.476562 34.808594 L 16.496094 34.832031 C 16.585938 34.945312 16.664062 35.058594 16.742188 35.175781 C 16.757812 35.203125 16.769531 35.226562 16.785156 35.253906 C 16.847656 35.359375 16.902344 35.453125 16.949219 35.554688 C 16.96875 35.589844 16.984375 35.628906 17 35.664062 L 17.015625 35.703125 C 17.058594 35.800781 17.09375 35.878906 17.121094 35.960938 C 17.136719 36.003906 17.148438 36.042969 17.164062 36.085938 L 17.195312 36.1875 C 17.210938 36.234375 17.226562 36.285156 17.242188 36.335938 C 17.242188 36.335938 17.269531 36.449219 17.277344 36.480469 C 17.304688 36.609375 17.328125 36.726562 17.347656 36.847656 C 17.355469 36.886719 17.359375 36.90625 17.363281 36.929688 C 17.382812 37.066406 17.398438 37.207031 17.410156 37.355469 L 17.417969 37.511719 C 17.417969 37.550781 17.421875 37.589844 17.421875 37.632812 C 17.425781 37.71875 17.425781 37.808594 17.425781 37.902344 C 17.421875 38.0625 17.414062 38.222656 17.398438 38.414062 C 17.394531 38.449219 17.378906 38.59375 17.378906 38.59375 C 17.378906 38.632812 17.375 38.671875 17.367188 38.710938 C 17.359375 38.765625 17.351562 38.820312 17.339844 38.871094 L 17.324219 38.964844 C 17.320312 39 17.3125 39.039062 17.304688 39.074219 C 17.273438 39.242188 17.238281 39.394531 17.199219 39.535156 C 17.199219 39.535156 17.179688 39.59375 17.175781 39.609375 C 17.128906 39.757812 17.085938 39.886719 17.035156 40.015625 C 17.035156 40.015625 16.949219 40.230469 16.941406 40.253906 C 16.90625 40.335938 16.867188 40.410156 16.828125 40.484375 C 16.828125 40.484375 16.785156 40.574219 16.777344 40.59375 C 16.710938 40.71875 16.640625 40.839844 16.570312 40.957031 L 16.539062 41.003906 C 16.511719 41.046875 16.484375 41.082031 16.457031 41.121094 L 16.425781 41.167969 C 16.363281 41.257812 16.300781 41.34375 16.238281 41.429688 C 16.199219 41.476562 16.160156 41.523438 16.125 41.566406 L 16.070312 41.632812 C 16.042969 41.667969 16.011719 41.707031 15.980469 41.742188 C 15.929688 41.796875 15.878906 41.851562 15.824219 41.910156 C 14.8125 42.960938 13.460938 43.640625 11.804688 43.929688 C 11.363281 44.003906 10.929688 44.042969 10.511719 44.042969 Z M 10.511719 44.042969 " fill-opacity="1" fill-rule="nonzero"/></g><path fill="rgb(0%, 0%, 0%)" d="M 12.566406 39.09375 L 17.914062 21.820312 L 22.042969 21.101562 L 25.753906 24.800781 L 30.820312 40.40625 L 25.59375 41.316406 L 23.027344 38.761719 L 22.175781 38.910156 L 21.34375 42.0625 L 16.40625 42.921875 Z M 12.566406 39.09375 " fill-opacity="1" fill-rule="nonzero"/><path fill="rgb(0%, 0%, 0%)" d="M 26.285156 36.773438 L 26.46875 20.328125 L 31.253906 19.492188 L 35.03125 23.253906 L 34.945312 31.078125 L 36.386719 30.824219 L 40.164062 34.589844 L 40.117188 38.785156 L 30.0625 40.539062 Z M 26.285156 36.773438 " fill-opacity="1" fill-rule="nonzero"/><g clip-path="url(#id6)"><path fill="rgb(0%, 0%, 0%)" d="M 36.292969 35.027344 L 36.472656 18.582031 L 46.773438 16.78125 L 50.550781 20.546875 L 50.503906 24.75 L 48.15625 25.160156 L 49.644531 26.644531 L 49.601562 30.769531 L 48.582031 30.949219 L 50.433594 32.792969 L 50.386719 36.988281 L 40.066406 38.792969 Z M 36.292969 35.027344 " fill-opacity="1" fill-rule="nonzero"/></g><g clip-path="url(#id7)"><path fill="rgb(100%, 87.059021%, 34.899902%)" d="M 9.496094 23.699219 C 10.070312 23.699219 10.605469 23.789062 11.089844 23.964844 C 11.894531 24.253906 12.515625 24.757812 12.941406 25.46875 C 13.363281 26.164062 13.570312 27.011719 13.558594 27.984375 L 13.550781 28.527344 L 9.460938 29.242188 L 9.464844 28.699219 C 9.472656 28.140625 9.371094 27.75 9.160156 27.527344 C 9.066406 27.425781 8.910156 27.308594 8.589844 27.308594 C 8.507812 27.308594 8.414062 27.316406 8.308594 27.335938 C 7.9375 27.398438 7.667969 27.542969 7.480469 27.769531 C 7.285156 28.007812 7.1875 28.304688 7.183594 28.683594 C 7.179688 28.945312 7.28125 29.152344 7.507812 29.335938 C 7.691406 29.492188 8.109375 29.726562 9.042969 29.960938 C 10.5625 30.242188 11.6875 30.738281 12.394531 31.433594 C 13.125 32.15625 13.492188 33.179688 13.476562 34.476562 C 13.460938 35.914062 12.972656 37.144531 12.019531 38.132812 C 11.085938 39.101562 9.828125 39.734375 8.28125 40 C 7.867188 40.074219 7.46875 40.109375 7.082031 40.109375 C 6.492188 40.109375 5.9375 40.027344 5.417969 39.859375 C 4.542969 39.578125 3.851562 39.066406 3.363281 38.339844 C 2.875 37.617188 2.632812 36.699219 2.644531 35.609375 L 2.652344 35.066406 L 6.761719 34.347656 L 6.757812 34.890625 C 6.75 35.59375 6.871094 36.085938 7.109375 36.324219 C 7.257812 36.46875 7.496094 36.542969 7.816406 36.542969 C 7.964844 36.542969 8.132812 36.527344 8.320312 36.496094 C 8.949219 36.386719 9.34375 36.132812 9.355469 35.214844 C 9.359375 34.769531 9.261719 34.457031 9.0625 34.292969 C 8.886719 34.152344 8.484375 33.933594 7.5625 33.722656 C 5.988281 33.40625 4.871094 32.90625 4.160156 32.203125 C 3.429688 31.484375 3.066406 30.535156 3.078125 29.378906 C 3.09375 27.976562 3.621094 26.746094 4.644531 25.710938 C 5.640625 24.703125 6.902344 24.0625 8.398438 23.800781 C 8.777344 23.734375 9.144531 23.699219 9.496094 23.699219 Z M 9.496094 23.699219 " fill-opacity="1" fill-rule="nonzero"/></g><path fill="rgb(100%, 87.059021%, 34.899902%)" d="M 21.867188 21.648438 L 26.714844 36.582031 L 22.335938 37.347656 L 21.570312 34.472656 L 18.328125 35.039062 L 17.496094 38.191406 L 13.148438 38.953125 L 18.3125 22.269531 Z M 19.308594 31.308594 L 20.660156 31.074219 L 20.011719 28.640625 L 19.308594 31.308594 " fill-opacity="1" fill-rule="nonzero"/><path fill="rgb(100%, 87.059021%, 34.899902%)" d="M 31.082031 20.042969 L 30.945312 32.292969 L 36.214844 31.375 L 36.171875 34.929688 L 26.804688 36.566406 L 26.976562 20.757812 Z M 31.082031 20.042969 " fill-opacity="1" fill-rule="nonzero"/><path fill="rgb(100%, 87.059021%, 34.899902%)" d="M 46.597656 17.332031 L 46.558594 20.898438 L 41.046875 21.859375 L 41.019531 24.25 L 45.695312 23.433594 L 45.65625 26.917969 L 40.980469 27.734375 L 40.949219 30.546875 L 46.484375 29.582031 L 46.445312 33.136719 L 36.808594 34.820312 L 36.984375 19.011719 Z M 46.597656 17.332031 " fill-opacity="1" fill-rule="nonzero"/></svg>